<svg width="25" height="25" viewBox="0 0 25 25" fill="none" xmlns="http://www.w3.org/2000/svg">
<path d="M9.37516 19.7915C8.12516 15.9603 6.74391 14.578 3.12516 13.5415C6.74391 12.505 8.12516 11.1228 9.37516 7.2915C10.6252 11.1228 12.0064 12.505 15.6252 13.5415C12.0064 14.578 10.6252 15.9603 9.37516 19.7915ZM17.7085 10.4165C17.0835 8.49984 16.3929 7.80921 14.5835 7.2915C16.3929 6.7738 17.0835 6.08317 17.7085 4.1665C18.3335 6.08317 19.0241 6.7738 20.8335 7.2915C19.0241 7.80921 18.3335 8.49984 17.7085 10.4165ZM16.146 20.8332C15.8335 19.8748 15.4887 19.53 14.5835 19.2707C15.4887 19.0113 15.8335 18.6665 16.146 17.7082C16.4585 18.6665 16.8033 19.0113 17.7085 19.2707C16.8033 19.53 16.4585 19.8748 16.146 20.8332Z" stroke="#2E71AB" stroke-width="2" stroke-linejoin="round"/>
</svg>
