<svg width="20" height="20" viewBox="0 0 20 20" fill="none" xmlns="http://www.w3.org/2000/svg">
<path d="M3.3335 3.3335H8.3335V8.3335H3.3335V3.3335ZM11.6668 3.3335H16.6668V8.3335H11.6668V3.3335ZM3.3335 11.6668H8.3335V16.6668H3.3335V11.6668ZM11.6668 14.1668C11.6668 14.8299 11.9302 15.4658 12.3991 15.9346C12.8679 16.4034 13.5038 16.6668 14.1668 16.6668C14.8299 16.6668 15.4658 16.4034 15.9346 15.9346C16.4034 15.4658 16.6668 14.8299 16.6668 14.1668C16.6668 13.5038 16.4034 12.8679 15.9346 12.3991C15.4658 11.9302 14.8299 11.6668 14.1668 11.6668C13.5038 11.6668 12.8679 11.9302 12.3991 12.3991C11.9302 12.8679 11.6668 13.5038 11.6668 14.1668Z" stroke="currentColor" stroke-width="2" stroke-linecap="round" stroke-linejoin="round"/>
</svg>
