<svg width="22" height="22" viewBox="0 0 22 22" fill="none" xmlns="http://www.w3.org/2000/svg">
<path d="M0.75 4.38636H20.75M8.70455 15.9773V9.15909M12.7955 15.9773V9.15909M12.7955 0.75H8.70455C8.34289 0.75 7.99604 0.893668 7.74031 1.1494C7.48458 1.40513 7.34091 1.75198 7.34091 2.11364V4.38636H14.1591V2.11364C14.1591 1.75198 14.0154 1.40513 13.7597 1.1494C13.504 0.893668 13.1571 0.75 12.7955 0.75ZM16.9864 19.4955C16.9611 19.8371 16.8073 20.1565 16.5559 20.3892C16.3046 20.622 15.9744 20.7509 15.6318 20.75H5.86818C5.52561 20.7509 5.1954 20.622 4.94406 20.3892C4.69273 20.1565 4.53893 19.8371 4.51364 19.4955L3.25 4.38636H18.25L16.9864 19.4955Z" stroke="#636363" stroke-width="1.5" stroke-linecap="round" stroke-linejoin="round"/>
</svg>
