<svg width="50" height="50" viewBox="0 0 50 50" fill="none" xmlns="http://www.w3.org/2000/svg">
<path d="M25 31.25C25 32.9076 25.6585 34.4973 26.8306 35.6694C28.0027 36.8415 29.5924 37.5 31.25 37.5C32.9076 37.5 34.4973 36.8415 35.6694 35.6694C36.8415 34.4973 37.5 32.9076 37.5 31.25C37.5 29.5924 36.8415 28.0027 35.6694 26.8306C34.4973 25.6585 32.9076 25 31.25 25C29.5924 25 28.0027 25.6585 26.8306 26.8306C25.6585 28.0027 25 29.5924 25 31.25Z" stroke="#042C53" stroke-width="2" stroke-linecap="round" stroke-linejoin="round"/>
<path d="M27.0835 36.458V45.833L31.2502 42.708L35.4168 45.833V36.458" stroke="#042C53" stroke-width="2" stroke-linecap="round" stroke-linejoin="round"/>
<path d="M20.8333 39.5832H10.4167C9.3116 39.5832 8.25179 39.1442 7.47039 38.3628C6.68899 37.5814 6.25 36.5216 6.25 35.4165V14.5832C6.25 12.2915 8.125 10.4165 10.4167 10.4165H39.5833C40.6884 10.4165 41.7482 10.8555 42.5296 11.6369C43.311 12.4183 43.75 13.4781 43.75 14.5832V35.4165C43.7492 36.1472 43.5564 36.8648 43.1907 37.4974C42.825 38.13 42.2995 38.6553 41.6667 39.0207M12.5 18.7498H37.5M12.5 24.9998H18.75M12.5 31.2498H16.6667" stroke="#042C53" stroke-width="2" stroke-linecap="round" stroke-linejoin="round"/>
</svg>
