<svg width="9" height="9" viewBox="0 0 9 9" fill="none" xmlns="http://www.w3.org/2000/svg">
<path fill-rule="evenodd" clip-rule="evenodd" d="M8.07976 1.91683C8.18521 2.02232 8.24445 2.16537 8.24445 2.31452C8.24445 2.46368 8.18521 2.60672 8.07976 2.71221L3.86363 6.92833C3.80792 6.98406 3.74177 7.02827 3.66896 7.05843C3.59616 7.08859 3.51813 7.10412 3.43932 7.10412C3.36052 7.10412 3.28248 7.08859 3.20968 7.05843C3.13688 7.02827 3.07073 6.98406 3.01501 6.92833L0.92026 4.83396C0.866535 4.78207 0.823683 4.72 0.794203 4.65137C0.764723 4.58275 0.749205 4.50893 0.748556 4.43425C0.747907 4.35956 0.76214 4.28549 0.790423 4.21636C0.818706 4.14723 0.860473 4.08443 0.913288 4.03161C0.966102 3.9788 1.02891 3.93703 1.09804 3.90875C1.16716 3.88046 1.24123 3.86623 1.31592 3.86688C1.39061 3.86753 1.46442 3.88305 1.53305 3.91253C1.60168 3.94201 1.66375 3.98486 1.71563 4.03858L3.43913 5.76208L7.28401 1.91683C7.33625 1.86456 7.39827 1.8231 7.46654 1.79481C7.53481 1.76651 7.60799 1.75195 7.68188 1.75195C7.75578 1.75195 7.82896 1.76651 7.89723 1.79481C7.9655 1.8231 8.02752 1.86456 8.07976 1.91683Z" fill="white"/>
</svg>
