<svg width="20" height="20" viewBox="0 0 20 20" fill="none" xmlns="http://www.w3.org/2000/svg">
<path d="M0.833496 17.5V15.8333H19.1668V17.5H0.833496ZM3.3335 15C2.87516 15 2.48294 14.8369 2.15683 14.5108C1.83072 14.1847 1.66739 13.7922 1.66683 13.3333V4.16667C1.66683 3.70833 1.83016 3.31611 2.15683 2.99C2.4835 2.66389 2.87572 2.50056 3.3335 2.5H16.6668C17.1252 2.5 17.5177 2.66333 17.8443 2.99C18.171 3.31667 18.3341 3.70889 18.3335 4.16667V13.3333C18.3335 13.7917 18.1704 14.1842 17.8443 14.5108C17.5182 14.8375 17.1257 15.0006 16.6668 15H3.3335ZM3.3335 13.3333H16.6668V4.16667H3.3335V13.3333Z" fill="white"/>
</svg>
