<svg width="24" height="24" viewBox="0 0 24 24" fill="none" xmlns="http://www.w3.org/2000/svg">
<path d="M11.9996 17.999C8.46959 17.999 5.36659 15.548 3.58659 13.779C3.11659 13.312 2.88259 13.078 2.73259 12.62C2.62559 12.293 2.62559 11.707 2.73259 11.38C2.88135 10.9217 3.11584 10.6887 3.58434 10.2232L3.58659 10.221C5.36559 8.452 8.46959 6 11.9996 6C15.5306 6 18.6326 8.452 20.4126 10.221C20.8816 10.688 21.1166 10.922 21.2666 11.38C21.3736 11.707 21.3736 12.293 21.2666 12.62C21.1178 13.0783 20.8833 13.3113 20.4149 13.7768L20.4126 13.779C18.6336 15.548 15.5296 17.999 11.9996 17.999Z" stroke="#636363" stroke-width="2" stroke-linecap="round" stroke-linejoin="round"/>
<path d="M10 12C10 12.5304 10.2107 13.0391 10.5858 13.4142C10.9609 13.7893 11.4696 14 12 14C12.5304 14 13.0391 13.7893 13.4142 13.4142C13.7893 13.0391 14 12.5304 14 12C14 11.4696 13.7893 10.9609 13.4142 10.5858C13.0391 10.2107 12.5304 10 12 10C11.4696 10 10.9609 10.2107 10.5858 10.5858C10.2107 10.9609 10 11.4696 10 12Z" stroke="#636363" stroke-width="2" stroke-linecap="round" stroke-linejoin="round"/>
</svg>
