<svg width="20" height="20" viewBox="0 0 20 20" fill="none" xmlns="http://www.w3.org/2000/svg">
<path d="M3.0709 12.8701C2.69399 11.9602 2.5 10.9849 2.5 10C2.5 9.01509 2.69399 8.03982 3.0709 7.12987C3.44781 6.21993 4.00026 5.39314 4.6967 4.6967C5.39314 4.00026 6.21993 3.44781 7.12987 3.0709C8.03982 2.69399 9.01509 2.5 10 2.5C10.9849 2.5 11.9602 2.69399 12.8701 3.0709C13.7801 3.44781 14.6069 4.00026 15.3033 4.6967C15.9997 5.39314 16.5522 6.21993 16.9291 7.12987C17.306 8.03982 17.5 9.01509 17.5 10C17.5 10.9849 17.306 11.9602 16.9291 12.8701C16.5522 13.7801 15.9997 14.6069 15.3033 15.3033C14.6069 15.9997 13.7801 16.5522 12.8701 16.9291C11.9602 17.306 10.9849 17.5 10 17.5C9.01509 17.5 8.03982 17.306 7.12987 16.9291C6.21993 16.5522 5.39314 15.9997 4.6967 15.3033C4.00026 14.6069 3.44781 13.7801 3.0709 12.8701Z" stroke="currentColor" stroke-width="2" stroke-linecap="round" stroke-linejoin="round"/>
<path d="M12.3333 7.50016C12.1824 7.2383 11.963 7.02241 11.6988 6.87562C11.4346 6.72883 11.1354 6.65666 10.8333 6.66683H9.16667C8.72464 6.66683 8.30072 6.84242 7.98816 7.15499C7.6756 7.46755 7.5 7.89147 7.5 8.3335C7.5 8.77552 7.6756 9.19945 7.98816 9.51201C8.30072 9.82457 8.72464 10.0002 9.16667 10.0002H10.8333C11.2754 10.0002 11.6993 10.1758 12.0118 10.4883C12.3244 10.8009 12.5 11.2248 12.5 11.6668C12.5 12.1089 12.3244 12.5328 12.0118 12.8453C11.6993 13.1579 11.2754 13.3335 10.8333 13.3335H9.16667C8.86458 13.3437 8.56541 13.2715 8.30118 13.1247C8.03696 12.9779 7.81763 12.762 7.66667 12.5002M10 5.8335V14.1668" stroke="currentColor" stroke-width="2" stroke-linecap="round" stroke-linejoin="round"/>
</svg>
