<svg width="20" height="20" viewBox="0 0 20 20" fill="none" xmlns="http://www.w3.org/2000/svg">
<path d="M4.6967 15.3033C6.10322 16.7098 8.01088 17.5 10 17.5C10.2255 17.5206 10.4517 17.4701 10.647 17.3555C10.8422 17.2409 10.9967 17.068 11.0886 16.8612C11.1806 16.6543 11.2054 16.4238 11.1596 16.2021C11.1138 15.9803 10.9997 15.7785 10.8333 15.625C10.5079 15.4451 10.252 15.1615 10.1064 14.8194C9.9607 14.4773 9.93362 14.0963 10.0294 13.737C10.1252 13.3777 10.3384 13.0608 10.6351 12.8367C10.9318 12.6125 11.2949 12.494 11.6667 12.5H13.75C14.7442 12.5 15.6983 12.1483 16.4017 11.5233C17.105 10.8983 17.5 10.05 17.5 9.16667C17.5 5.485 14.1417 2.5 10 2.5C8.01088 2.5 6.10322 3.29018 4.6967 4.6967C3.29018 6.10322 2.5 8.01088 2.5 10C2.5 11.9891 3.29018 13.8968 4.6967 15.3033Z" stroke="currentColor" stroke-width="2" stroke-linecap="round" stroke-linejoin="round"/>
<path d="M6.25 8.74984C6.25 8.97085 6.3378 9.18281 6.49408 9.33909C6.65036 9.49537 6.86232 9.58317 7.08333 9.58317C7.30435 9.58317 7.51631 9.49537 7.67259 9.33909C7.82887 9.18281 7.91667 8.97085 7.91667 8.74984C7.91667 8.52882 7.82887 8.31686 7.67259 8.16058C7.51631 8.0043 7.30435 7.9165 7.08333 7.9165C6.86232 7.9165 6.65036 8.0043 6.49408 8.16058C6.3378 8.31686 6.25 8.52882 6.25 8.74984ZM9.58333 6.24984C9.58333 6.47085 9.67113 6.68281 9.82741 6.83909C9.98369 6.99537 10.1957 7.08317 10.4167 7.08317C10.6377 7.08317 10.8496 6.99537 11.0059 6.83909C11.1622 6.68281 11.25 6.47085 11.25 6.24984C11.25 6.02882 11.1622 5.81686 11.0059 5.66058C10.8496 5.5043 10.6377 5.4165 10.4167 5.4165C10.1957 5.4165 9.98369 5.5043 9.82741 5.66058C9.67113 5.81686 9.58333 6.02882 9.58333 6.24984ZM12.9167 8.74984C12.9167 8.97085 13.0045 9.18281 13.1607 9.33909C13.317 9.49537 13.529 9.58317 13.75 9.58317C13.971 9.58317 14.183 9.49537 14.3393 9.33909C14.4955 9.18281 14.5833 8.97085 14.5833 8.74984C14.5833 8.52882 14.4955 8.31686 14.3393 8.16058C14.183 8.0043 13.971 7.9165 13.75 7.9165C13.529 7.9165 13.317 8.0043 13.1607 8.16058C13.0045 8.31686 12.9167 8.52882 12.9167 8.74984Z" stroke="currentColor" stroke-width="2" stroke-linecap="round" stroke-linejoin="round"/>
</svg>
